Patient4_TMGait_0pt7_01_right_35_EMG.mot
version=1
nRows=23
nColumns=33
inDegrees=no
endheader
time	1LAddLong	2LGlutMax	3LGlutMed	4LIliopsoas	5LSemiMemb	6LBicFemLong	7LRecFem	8LVastMed	9LVastLat	10LGasMed	11LTibAnt	12lTibPost	13LPeroneusLong	14LSol	15LExtDigLong	16LFlexDigLong	17RAddLong	18RGlutMax	19RGlutMed	20RIliopsoas	21RSemiMemb	22RBicFemLong	23RRecFem	24RVastMed	25RVastLat	26RGasMed	27RTibAnt	28RTibPost	29RPeroneusLong	30RSol	31RExtDigLong	32RFlexDigLong
39.86	0.005493	-0.05249	0.045776	-0.012817	0.001068	-0.12039	0.04776	0.007019	-0.014343	-0.16724	0.036774	0.011902	-0.021667	0.076904	0.002441	-0.009308	-0.020905	-0.018158	0.4686	-0.023041	0.071106	0.091858	0.077057	-0.15839	-0.093536	0.002899	-0.50003	-0.003662	0.026703	0.036926	-0.004425	-0.001678
39.861	0.00946	-0.027466	-0.06485	-0.025177	0.013885	-0.44769	0.031128	0.00885	0.041504	-0.14404	-0.008698	0.001526	0.066681	-0.026245	-0.077209	-0.009918	-0.009918	0.02594	0.38223	-0.084534	0.071259	0.085602	0.10223	-0.18051	-0.087585	-0.005951	-0.16357	-0.002136	-0.05127	0.12283	-0.003357	-0.00061
39.862	0.1004	-0.019684	-0.077515	-0.009918	0.12344	-0.48569	0.043488	0.007782	0.081329	-0.11688	0.067749	0.008545	0.016479	-0.16251	-0.01297	-0.01709	0.018463	0.056	0.21439	-0.093994	0.074768	0.087891	0.055237	-0.18066	-0.077972	-0.006561	0.12695	-0.001221	0.042572	0.10819	-0.006256	-0.000305
39.863	0.037994	0.022583	0.12955	-0.003815	0.075226	-0.21896	0.056	0.011597	-0.009918	0.002899	0.064087	0.010986	0.013885	-0.11292	0.002594	-0.003815	0.015564	0.058899	0.33875	-0.098114	0.083618	0.09079	0.090942	-0.16953	-0.070496	-0.008545	0.094604	-0.004425	0.15823	0.1738	-0.002441	0.005493
39.864	0.058136	-0.023651	0.067444	0.011902	0.038605	-0.028381	0.062714	0.007782	-0.12482	0.087128	0.029449	0.005646	0.034943	-0.16632	-0.011444	0.005798	0.022278	0.076599	0.5751	-0.1152	0.081482	0.078125	0.22812	-0.16357	-0.063324	-0.006714	-0.053558	-0.003662	0.093231	0.1857	-0.00412	0.001221
39.865	0.002747	-0.040741	0.008392	0.006104	0.032043	-0.014343	0.077667	0.00885	-0.11749	0.094452	0.003204	0.003967	0.046082	-0.1358	-0.009918	0.006714	0.008392	0.055695	0.59113	-0.1091	0.083618	0.065308	0.26581	-0.14191	-0.080719	-0.004272	-0.096588	-0.000305	0.1088	0.075684	-0.005035	0.005035
39.866	0.005188	-0.036163	0.050659	-0.000916	0.0177	0.002441	0.075836	0.007019	-0.026093	-0.013123	-0.031433	0.009003	0.018768	-0.023346	0.002289	0.011444	-0.016327	0.027161	-0.028534	-0.002289	0.081177	0.080719	0.10559	-0.17273	-0.079956	-0.00473	-0.072174	-0.00061	0.11368	-0.034943	-0.002899	0.009308
39.867	-0.005035	-0.050812	0.11307	0.011139	0.01297	0.017853	-0.001068	0.005188	0.084839	-0.044861	-0.065002	0.007172	-0.14084	-0.033112	0.050049	0.005035	-0.048828	0.066833	-0.087738	-0.003815	0.075684	0.094757	-0.062256	-0.18494	-0.076294	-0.003662	0.15732	-0.002899	0.11429	-0.11856	0.000763	0.011749
39.868	0.010834	-0.035553	0.094757	-0.002747	0.026245	0.008545	-0.062561	0.01236	0.1387	0.094757	-0.09079	0.016022	-0.3064	-0.099335	0.11414	-0.005188	-0.02655	0.029907	0.074463	-0.036469	0.071564	0.086365	-0.20798	-0.16205	-0.058441	-0.003052	0.52292	-0.002136	-0.041046	-0.068207	0.001526	0.002289
39.869	0.007629	0.001373	0.045929	0.00412	0.012817	0.019531	-0.046844	-0.00061	0.094299	0.15121	-0.10132	0.023041	0.94467	-0.12085	0.19211	-0.020447	-0.009918	0.03891	0.44006	0.029144	0.090332	0.075989	-0.43366	-0.1738	-0.086517	-0.001831	0.62271	-0.004272	-0.13199	-0.018768	-0.005798	0.007172
39.87	0.002594	-0.047455	0.074768	-0.001678	0.003204	0.014343	-0.13901	0.006409	0.041656	0.098267	-0.086823	0.015259	1.2599	-0.018005	0.24933	-0.022583	-0.008392	0.001373	0.69336	0.10773	0.098877	0.081024	-0.4776	-0.18692	-0.096436	0.000153	0.74738	-0.000153	-0.072174	-0.005188	-0.002289	0.000305
39.871	-0.006256	-0.03891	0.081329	-0.004883	-0.010071	0.062561	-0.099487	0.00885	0.05249	0.044556	-0.075684	0.011444	0.59479	0.12909	0.15152	-0.021057	0.001373	0.03067	0.64301	0.12711	0.12466	0.093536	-0.35461	-0.16373	-0.081329	-0.002594	0.52368	-0.002747	0.09079	0.037689	-0.000458	-0.00351
39.872	-0.005646	-0.005341	0.12177	-0.003357	0.015259	0.077209	0.006866	0.011597	0.085144	-0.039063	0.00351	0.028076	0.096283	0.24048	0.13687	-0.010681	-0.010071	0.056915	0.75195	0.044098	0.15045	0.081787	-0.17166	-0.18204	-0.084229	0.000305	0.18219	0.002289	0.21255	-0.009918	-0.002899	-0.006256
39.873	-0.003662	0.007477	0.12756	-0.009003	0.013733	0.14389	0.031738	0.011292	0.052032	-0.044861	0.007019	0.010223	-0.30594	0.23529	-0.11658	-0.006866	0.027161	0.039063	0.4306	-0.043335	0.13245	0.07019	0.008392	-0.10956	-0.085907	-0.00061	-0.38849	-0.00061	0.159	-0.095673	-0.003815	-0.009155
39.874	-0.005188	-0.037537	0.10727	0.00473	0.012054	0.18906	0.008392	0.010071	0.02533	-0.018463	-0.1651	0.009766	-0.77133	0.17654	-0.21561	0.005188	0.076447	0.026855	0.42007	0.016785	0.062714	0.073547	0.049133	-0.10498	-0.032959	0.002747	-0.25604	-0.003662	-0.056915	-0.10513	-0.00351	-0.002594
39.875	-0.006866	-0.048523	0.017548	0.00473	-0.009766	0.14969	0.018921	0.000153	0.021515	-0.023956	-0.06134	0.01236	-0.038605	0.19623	0.011292	-0.002594	0.065308	0.037537	0.30273	-0.031281	0.050354	0.086212	0.08606	-0.026398	-0.023651	0.003052	-0.069427	0.000305	-0.19272	-0.09079	0.000153	0.000763
39.876	-0.002899	-0.043335	-0.017548	-0.015106	-0.009918	0.19302	0.039368	0.004883	0.028687	0.03006	0.19638	0.009155	-0.68909	0.20905	0.16327	-0.010071	0.035095	0.00412	0.027466	-0.0383	0.071106	0.091858	0.23224	-0.001831	-0.042572	0.002289	0.0914	-0.002289	-0.27634	-0.051422	-0.001678	-0.012512
39.877	-0.011749	-0.060883	0.010376	0.000763	-0.019226	0.23819	0.045319	0.011597	0.018005	0.041504	0.30319	0.00351	-0.38788	0.082703	-0.24323	-0.008545	0.023499	0.028534	-0.055389	-0.067749	0.098572	0.12299	0.24857	-0.029907	-0.020599	-0.003967	0.11139	-0.001678	-0.15488	-0.013123	-0.001678	-0.004272
39.878	-0.005188	-0.070343	0.046387	-0.006104	-0.025024	0.10193	0.062408	0.00824	0.016022	0.032196	0.25971	0.008392	-0.16052	-0.097504	0.38422	0.007935	0.067596	0.044098	-0.006714	0.00351	0.12146	0.10391	0.30731	-0.085297	0	0.00061	-0.01236	-0.006256	-0.013123	0.044708	-0.001068	-0.004272
39.879	-0.010223	-0.10819	-0.073853	0.000153	-0.044098	-0.23636	0.055695	0.005798	0.033722	0.037842	0.11398	0.008087	0.26504	-0.081177	-0.26398	0.005035	0.074463	0.038757	-0.010681	0.053558	0.10239	0.10727	0.28641	-0.050049	-0.012817	0.001221	-0.13977	-0.008698	0.13321	0.075989	-0.001526	-0.006714
39.88	-0.011597	-0.084991	-0.092468	0.032043	-0.077667	-0.14603	0.066528	0.006409	0.018158	0.00412	0.058289	0.005798	0.23926	-0.021973	-0.15808	0.005188	0.053864	0.06424	0.059204	0.063782	0.1001	0.11627	0.20599	-0.054169	-0.023499	-0.003967	0.027618	-0.007782	0.003357	0.045319	-0.001373	-0.006866
39.881	-0.000458	-0.097809	-0.038757	0.018616	-0.029755	-0.13611	0.075531	0.010681	0.028687	-0.036316	-0.13519	0.005341	0.70801	0.094757	-0.48645	0.004425	0.077515	0.04715	0.059357	0.07431	0.059662	0.096588	0.15762	-0.097351	-0.033417	-0.003662	0.038452	-0.004883	-0.092316	0.003662	0.001068	-0.008698
39.882	-0.000305	-0.088806	-0.001373	-0.014648	0.062256	-0.45563	0.07019	0.008087	0.035248	-0.062866	-0.19791	0.00824	-0.006866	0.093231	-0.3305	0.010071	0.076447	0.02243	-0.009308	0.10193	0.091705	0.059662	0.13275	-0.078278	-0.037231	-0.010529	0.11581	-0.007477	-0.20187	-0.022125	-0.004578	0.000305
